<svg width="77" height="32" viewBox="0 0 77 32" fill="none" xmlns="http://www.w3.org/2000/svg">
<path d="M61 16L0 16" stroke="url(#paint0_linear_2294_1182)" stroke-width="4"/>
<path d="M60.5 16L46.5 24L46.5 8L60.5 16Z" fill="#FDF6AC"/>
<path d="M60.5 16L61.4923 17.7365L64.5311 16L61.4923 14.2635L60.5 16ZM46.5 24L44.5 24L44.5 27.4464L47.4923 25.7365L46.5 24ZM46.5 8L47.4923 6.26351L44.5 4.55364L44.5 8L46.5 8ZM59.5077 14.2635L45.5077 22.2635L47.4923 25.7365L61.4923 17.7365L59.5077 14.2635ZM48.5 24L48.5 8L44.5 8L44.5 24L48.5 24ZM45.5077 9.73649L59.5077 17.7365L61.4923 14.2635L47.4923 6.26351L45.5077 9.73649Z" fill="#FDF6AC"/>
<defs>
<linearGradient id="paint0_linear_2294_1182" x1="61" y1="15.5" x2="9.16038e-08" y2="15.5" gradientUnits="userSpaceOnUse">
<stop stop-color="#FDF6AC"/>
<stop offset="1" stop-color="white" stop-opacity="0"/>
</linearGradient>
</defs>
</svg>
