<svg width="25" height="25" viewBox="0 0 25 25" fill="none" xmlns="http://www.w3.org/2000/svg">
<path fill-rule="evenodd" clip-rule="evenodd" d="M1.0015 10.8032V18.4341C0.931719 21.4363 3.3071 23.9274 6.30888 24H18.6911C21.6929 23.9274 24.0683 21.4363 23.9985 18.4341V10.8032C24.0019 8.55165 22.9516 6.42825 21.16 5.06479L16.1335 2.01735C13.9004 0.660883 11.0979 0.660883 8.86483 2.01735L3.83999 5.06479C2.04843 6.42825 0.998092 8.55165 1.0015 10.8032Z" fill="#8FD797" stroke="#8FD797" stroke-width="1.5" stroke-linecap="round" stroke-linejoin="round"/>
<path fill-rule="evenodd" clip-rule="evenodd" d="M15 18C14.414 18.6289 13.4863 19 12.5 19C11.5137 19 10.586 18.6289 10 18" fill="#8FD797"/>
<path d="M15 18C14.414 18.6289 13.4863 19 12.5 19C11.5137 19 10.586 18.6289 10 18" stroke="white" stroke-width="1.5" stroke-linecap="round"/>
</svg>
