<svg width="22" height="25" viewBox="0 0 22 25" fill="none" xmlns="http://www.w3.org/2000/svg">
<path fill-rule="evenodd" clip-rule="evenodd" d="M16 6C16 8.76142 13.7614 11 11 11C8.23858 11 6 8.76142 6 6C6 3.23858 8.23858 1 11 1C12.3261 1 13.5979 1.52678 14.5355 2.46447C15.4732 3.40215 16 4.67392 16 6Z" fill="#8FD797" stroke="#8FD797" stroke-width="1.5" stroke-linecap="round" stroke-linejoin="round"/>
<path fill-rule="evenodd" clip-rule="evenodd" d="M16.8333 15H5.16667C2.86548 15 1 16.8655 1 19.1667C1 21.4679 2.86548 23.3333 5.16667 23.3333H16.8333C19.1345 23.3333 21 21.4679 21 19.1667C21 16.8655 19.1345 15 16.8333 15V15Z" fill="#8FD797" stroke="#8FD797" stroke-width="1.5" stroke-linecap="round" stroke-linejoin="round"/>
</svg>
