<svg width="22" height="26" viewBox="0 0 22 26" fill="none" xmlns="http://www.w3.org/2000/svg">
<path fill-rule="evenodd" clip-rule="evenodd" d="M16 6C16 8.76142 13.7614 11 11 11C8.23858 11 6 8.76142 6 6C6 3.23858 8.23858 1 11 1C12.3261 1 13.5979 1.52678 14.5355 2.46447C15.4732 3.40215 16 4.67392 16 6Z" stroke="black" stroke-width="1.5" stroke-linecap="round" stroke-linejoin="round"/>
<path fill-rule="evenodd" clip-rule="evenodd" d="M16.8333 16H5.16667C2.86548 16 1 17.8655 1 20.1667C1 22.4679 2.86548 24.3333 5.16667 24.3333H16.8333C19.1345 24.3333 21 22.4679 21 20.1667C21 17.8655 19.1345 16 16.8333 16V16Z" stroke="black" stroke-width="1.5" stroke-linecap="round" stroke-linejoin="round"/>
</svg>
